<svg width="1024" height="1024" viewBox="0 0 1024 1024" fill="none" xmlns="http://www.w3.org/2000/svg">
<path d="M635.569 536H383.431L509.5 314.107L635.569 536Z" stroke="#519778" stroke-width="9"/>
<line x1="509.5" y1="321.021" x2="508.5" y2="539.021" stroke="#519778" stroke-width="9"/>
<path d="M148.562 754V735.55H172.67V600.25H148.562V581.8H234.908C244.912 581.8 253.768 583.604 261.476 587.212C269.348 590.82 275.416 595.904 279.68 602.464C284.108 608.86 286.322 616.404 286.322 625.096V627.064C286.322 635.1 284.764 641.742 281.648 646.99C278.532 652.074 274.842 656.092 270.578 659.044C266.314 661.832 262.132 663.882 258.032 665.194V668.638C262.132 669.622 266.396 671.59 270.824 674.542C275.252 677.33 278.942 681.348 281.894 686.596C285.01 691.844 286.568 698.486 286.568 706.522V708.982C286.568 718.33 284.272 726.448 279.68 733.336C275.252 740.06 269.102 745.226 261.23 748.834C253.522 752.278 244.666 754 234.662 754H148.562ZM193.334 735.304H232.448C243.272 735.304 251.554 732.762 257.294 727.678C263.034 722.594 265.904 715.706 265.904 707.014V704.8C265.904 696.108 263.034 689.22 257.294 684.136C251.554 679.052 243.272 676.51 232.448 676.51H193.334V735.304ZM193.334 657.814H233.186C243.026 657.814 250.898 655.354 256.802 650.434C262.706 645.35 265.658 638.708 265.658 630.508V628.048C265.658 619.684 262.706 613.042 256.802 608.122C251.062 603.038 243.19 600.496 233.186 600.496H193.334V657.814ZM375.653 757.444C363.517 757.444 352.775 754.902 343.427 749.818C334.243 744.734 327.027 737.6 321.779 728.416C316.695 719.068 314.153 708.08 314.153 695.452V692.254C314.153 679.79 316.695 668.884 321.779 659.536C327.027 650.188 334.243 642.972 343.427 637.888C352.775 632.804 363.517 630.262 375.653 630.262C387.789 630.262 398.449 632.804 407.633 637.888C416.981 642.972 424.197 650.188 429.281 659.536C434.529 668.884 437.153 679.79 437.153 692.254V695.452C437.153 708.08 434.529 719.068 429.281 728.416C424.197 737.6 416.981 744.734 407.633 749.818C398.449 754.902 387.789 757.444 375.653 757.444ZM375.653 739.978C388.445 739.978 398.613 735.96 406.157 727.924C413.865 719.724 417.719 708.736 417.719 694.96V692.746C417.719 678.97 413.865 668.064 406.157 660.028C398.613 651.828 388.445 647.728 375.653 647.728C363.025 647.728 352.857 651.828 345.149 660.028C337.441 668.064 333.587 678.97 333.587 692.746V694.96C333.587 708.736 337.441 719.724 345.149 727.924C352.857 735.96 363.025 739.978 375.653 739.978ZM527.721 757.444C515.585 757.444 504.843 754.902 495.495 749.818C486.311 744.734 479.095 737.6 473.847 728.416C468.763 719.068 466.221 708.08 466.221 695.452V692.254C466.221 679.79 468.763 668.884 473.847 659.536C479.095 650.188 486.311 642.972 495.495 637.888C504.843 632.804 515.585 630.262 527.721 630.262C539.857 630.262 550.517 632.804 559.701 637.888C569.049 642.972 576.265 650.188 581.349 659.536C586.597 668.884 589.221 679.79 589.221 692.254V695.452C589.221 708.08 586.597 719.068 581.349 728.416C576.265 737.6 569.049 744.734 559.701 749.818C550.517 754.902 539.857 757.444 527.721 757.444ZM527.721 739.978C540.513 739.978 550.681 735.96 558.225 727.924C565.933 719.724 569.787 708.736 569.787 694.96V692.746C569.787 678.97 565.933 668.064 558.225 660.028C550.681 651.828 540.513 647.728 527.721 647.728C515.093 647.728 504.925 651.828 497.217 660.028C489.509 668.064 485.655 678.97 485.655 692.746V694.96C485.655 708.736 489.509 719.724 497.217 727.924C504.925 735.96 515.093 739.978 527.721 739.978ZM672.655 757.444C657.731 757.444 645.103 754 634.771 747.112C624.603 740.224 618.453 729.318 616.321 714.394L634.771 710.212C636.083 718.084 638.543 724.316 642.151 728.908C645.759 733.336 650.187 736.534 655.435 738.502C660.847 740.306 666.587 741.208 672.655 741.208C681.675 741.208 688.809 739.404 694.057 735.796C699.305 732.188 701.929 727.35 701.929 721.282C701.929 715.05 699.387 710.704 694.303 708.244C689.383 705.62 682.577 703.488 673.885 701.848L663.799 700.126C656.091 698.814 649.039 696.764 642.643 693.976C636.247 691.188 631.163 687.416 627.391 682.66C623.619 677.904 621.733 671.918 621.733 664.702C621.733 653.878 625.915 645.432 634.279 639.364C642.643 633.296 653.713 630.262 667.489 630.262C681.101 630.262 692.089 633.378 700.453 639.61C708.981 645.678 714.475 654.288 716.935 665.44L698.731 670.114C697.255 661.422 693.729 655.354 688.153 651.91C682.577 648.302 675.689 646.498 667.489 646.498C659.289 646.498 652.811 648.056 648.055 651.172C643.299 654.124 640.921 658.552 640.921 664.456C640.921 670.196 643.135 674.46 647.563 677.248C652.155 679.872 658.223 681.84 665.767 683.152L675.853 684.874C684.381 686.35 692.007 688.4 698.731 691.024C705.619 693.484 711.031 697.092 714.967 701.848C719.067 706.604 721.117 712.836 721.117 720.544C721.117 732.352 716.689 741.454 707.833 747.85C699.141 754.246 687.415 757.444 672.655 757.444ZM795.557 754C788.669 754 783.339 752.114 779.567 748.342C775.959 744.57 774.155 739.404 774.155 732.844V650.68H737.993V633.706H774.155V590.902H793.589V633.706H832.949V650.68H793.589V729.892C793.589 734.812 795.967 737.272 800.723 737.272H827.537V754H795.557Z" fill="#519778"/>
<path d="M215.68 518V345.8H281.608C291.94 345.8 301.124 347.85 309.16 351.95C317.36 355.886 323.838 361.544 328.594 368.924C333.35 376.304 335.728 385.242 335.728 395.738V398.936C335.728 409.268 333.268 418.206 328.348 425.75C323.592 433.13 317.114 438.788 308.914 442.724C300.714 446.66 291.612 448.628 281.608 448.628H236.344V518H215.68ZM236.344 429.932H279.394C290.382 429.932 299.074 427.226 305.47 421.814C311.866 416.238 315.064 408.448 315.064 398.444V395.984C315.064 385.98 311.866 378.272 305.47 372.86C299.238 367.284 290.546 364.496 279.394 364.496H236.344V429.932ZM364.162 518V397.706H383.104V412.466H386.548C388.68 407.218 391.96 403.364 396.388 400.904C400.816 398.444 406.638 397.214 413.854 397.214H428.122V414.926H412.624C403.932 414.926 396.88 417.386 391.468 422.306C386.22 427.062 383.596 434.524 383.596 444.692V518H364.162ZM508.164 521.444C496.028 521.444 485.286 518.902 475.938 513.818C466.754 508.734 459.538 501.6 454.29 492.416C449.206 483.068 446.664 472.08 446.664 459.452V456.254C446.664 443.79 449.206 432.884 454.29 423.536C459.538 414.188 466.754 406.972 475.938 401.888C485.286 396.804 496.028 394.262 508.164 394.262C520.3 394.262 530.96 396.804 540.144 401.888C549.492 406.972 556.708 414.188 561.792 423.536C567.04 432.884 569.664 443.79 569.664 456.254V459.452C569.664 472.08 567.04 483.068 561.792 492.416C556.708 501.6 549.492 508.734 540.144 513.818C530.96 518.902 520.3 521.444 508.164 521.444ZM508.164 503.978C520.956 503.978 531.124 499.96 538.668 491.924C546.376 483.724 550.23 472.736 550.23 458.96V456.746C550.23 442.97 546.376 432.064 538.668 424.028C531.124 415.828 520.956 411.728 508.164 411.728C495.536 411.728 485.368 415.828 477.66 424.028C469.952 432.064 466.098 442.97 466.098 456.746V458.96C466.098 472.736 469.952 483.724 477.66 491.924C485.368 499.96 495.536 503.978 508.164 503.978ZM655.559 521.444C645.227 521.444 635.715 518.984 627.023 514.064C618.331 509.144 611.443 502.01 606.359 492.662C601.275 483.314 598.733 472.244 598.733 459.452V456.254C598.733 443.462 601.275 432.474 606.359 423.29C611.443 413.942 618.249 406.808 626.777 401.888C635.469 396.804 645.063 394.262 655.559 394.262C663.923 394.262 670.975 395.41 676.715 397.706C682.619 399.838 687.375 402.626 690.983 406.07C694.591 409.35 697.379 412.876 699.347 416.648H702.791V345.8H722.225V518H703.283V498.074H699.839C696.559 504.142 691.475 509.554 684.587 514.31C677.699 519.066 668.023 521.444 655.559 521.444ZM660.725 504.224C673.189 504.224 683.275 500.288 690.983 492.416C698.855 484.38 702.791 473.228 702.791 458.96V456.746C702.791 442.478 698.855 431.408 690.983 423.536C683.275 415.5 673.189 411.482 660.725 411.482C648.425 411.482 638.257 415.5 630.221 423.536C622.349 431.408 618.413 442.478 618.413 456.746V458.96C618.413 473.228 622.349 484.38 630.221 492.416C638.257 500.288 648.425 504.224 660.725 504.224Z" fill="#519778"/>
</svg>
